<mxfile host="app.diagrams.net" modified="2024-02-21T06:56:38.855Z" agent="Mozilla/5.0 (Windows NT 10.0; Win64; x64) AppleWebKit/537.36 (KHTML, like Gecko) Chrome/121.0.0.0 Safari/537.36" etag="It-LgD2f7J45C6hGvd6Z" version="23.1.2" type="github">
  <diagram name="Page-1" id="XOSB6ZwxzMkFlcoq8P-w">
    <mxGraphModel dx="1597" dy="1464" grid="1" gridSize="10" guides="1" tooltips="1" connect="1" arrows="1" fold="1" page="1" pageScale="1" pageWidth="850" pageHeight="1100" math="0" shadow="0">
      <root>
        <mxCell id="0" />
        <mxCell id="1" parent="0" />
        <mxCell id="moLdlOD4LK-5ZweyB185-27" style="edgeStyle=orthogonalEdgeStyle;rounded=0;orthogonalLoop=1;jettySize=auto;html=1;entryX=0;entryY=0.5;entryDx=0;entryDy=0;" edge="1" parent="1" source="moLdlOD4LK-5ZweyB185-2" target="moLdlOD4LK-5ZweyB185-26">
          <mxGeometry relative="1" as="geometry" />
        </mxCell>
        <mxCell id="moLdlOD4LK-5ZweyB185-6" value="&lt;font style=&quot;font-size: 36px;&quot;&gt;&lt;b&gt;Tally to Zoho CRM connector&lt;/b&gt;&lt;/font&gt;" style="shape=ext;double=1;rounded=1;whiteSpace=wrap;html=1;" vertex="1" parent="1">
          <mxGeometry x="220" y="-220" width="630" height="70" as="geometry" />
        </mxCell>
        <mxCell id="moLdlOD4LK-5ZweyB185-24" style="edgeStyle=orthogonalEdgeStyle;rounded=0;orthogonalLoop=1;jettySize=auto;html=1;entryX=0.5;entryY=0;entryDx=0;entryDy=0;" edge="1" parent="1" target="moLdlOD4LK-5ZweyB185-17">
          <mxGeometry relative="1" as="geometry">
            <mxPoint x="165" y="180" as="sourcePoint" />
            <mxPoint x="-300" y="345" as="targetPoint" />
            <Array as="points">
              <mxPoint x="165" y="300" />
              <mxPoint x="-290" y="300" />
            </Array>
          </mxGeometry>
        </mxCell>
        <mxCell id="moLdlOD4LK-5ZweyB185-18" value="" style="group" vertex="1" connectable="0" parent="1">
          <mxGeometry x="-390" y="370" width="230" height="170" as="geometry" />
        </mxCell>
        <mxCell id="moLdlOD4LK-5ZweyB185-25" value="" style="group" vertex="1" connectable="0" parent="moLdlOD4LK-5ZweyB185-18">
          <mxGeometry y="5" width="200" height="170" as="geometry" />
        </mxCell>
        <mxCell id="moLdlOD4LK-5ZweyB185-17" value="" style="rounded=1;whiteSpace=wrap;html=1;" vertex="1" parent="moLdlOD4LK-5ZweyB185-25">
          <mxGeometry width="200" height="170" as="geometry" />
        </mxCell>
        <mxCell id="moLdlOD4LK-5ZweyB185-15" value="&lt;h1 style=&quot;text-align: center;&quot;&gt;CUSTOMER&lt;/h1&gt;&lt;p&gt;&lt;/p&gt;&lt;b&gt;1. Zoho CRM generates a unique ID&lt;br&gt;2. Send Mail&lt;br&gt;&lt;/b&gt;" style="text;html=1;strokeColor=none;fillColor=none;spacing=5;spacingTop=-20;whiteSpace=wrap;overflow=hidden;rounded=0;" vertex="1" parent="moLdlOD4LK-5ZweyB185-25">
          <mxGeometry x="20.00363636363636" y="58.91125" width="170" height="105.63" as="geometry" />
        </mxCell>
        <mxCell id="moLdlOD4LK-5ZweyB185-10" value="" style="verticalLabelPosition=bottom;aspect=fixed;html=1;shape=mxgraph.salesforce.customer_360;" vertex="1" parent="moLdlOD4LK-5ZweyB185-25">
          <mxGeometry x="84.16181818181818" y="4.53125" width="41.675442962442965" height="37.926991926991924" as="geometry" />
        </mxCell>
        <mxCell id="moLdlOD4LK-5ZweyB185-23" style="edgeStyle=orthogonalEdgeStyle;rounded=0;orthogonalLoop=1;jettySize=auto;html=1;entryX=0.5;entryY=1;entryDx=0;entryDy=0;" edge="1" parent="1" source="moLdlOD4LK-5ZweyB185-21" target="moLdlOD4LK-5ZweyB185-8">
          <mxGeometry relative="1" as="geometry" />
        </mxCell>
        <mxCell id="moLdlOD4LK-5ZweyB185-21" value="&lt;span style=&quot;font-size: 18px;&quot;&gt;&lt;b&gt;EMAIL&lt;/b&gt;&lt;/span&gt;" style="rounded=1;whiteSpace=wrap;html=1;" vertex="1" parent="1">
          <mxGeometry x="250" y="610" width="120" height="30" as="geometry" />
        </mxCell>
        <mxCell id="moLdlOD4LK-5ZweyB185-22" style="edgeStyle=orthogonalEdgeStyle;rounded=0;orthogonalLoop=1;jettySize=auto;html=1;entryX=0;entryY=0.5;entryDx=0;entryDy=0;" edge="1" parent="1" source="moLdlOD4LK-5ZweyB185-17" target="moLdlOD4LK-5ZweyB185-21">
          <mxGeometry relative="1" as="geometry">
            <Array as="points">
              <mxPoint x="-290" y="665" />
            </Array>
          </mxGeometry>
        </mxCell>
        <mxCell id="moLdlOD4LK-5ZweyB185-26" value="&lt;span style=&quot;font-size: 18px;&quot;&gt;&lt;b&gt;SYNC&lt;/b&gt;&lt;/span&gt;" style="rounded=1;whiteSpace=wrap;html=1;" vertex="1" parent="1">
          <mxGeometry x="650" y="104" width="120" height="30" as="geometry" />
        </mxCell>
        <mxCell id="moLdlOD4LK-5ZweyB185-30" value="" style="group" vertex="1" connectable="0" parent="1">
          <mxGeometry x="100" y="74" width="150" height="136" as="geometry" />
        </mxCell>
        <mxCell id="moLdlOD4LK-5ZweyB185-1" value="" style="sketch=0;aspect=fixed;pointerEvents=1;shadow=0;dashed=0;html=1;strokeColor=none;labelPosition=center;verticalLabelPosition=bottom;verticalAlign=top;align=center;fillColor=#00188D;shape=mxgraph.azure.laptop" vertex="1" parent="moLdlOD4LK-5ZweyB185-30">
          <mxGeometry width="150" height="90" as="geometry" />
        </mxCell>
        <mxCell id="moLdlOD4LK-5ZweyB185-7" value="&lt;b&gt;&lt;font style=&quot;font-size: 18px;&quot;&gt;ZOHO CRM&lt;/font&gt;&lt;/b&gt;" style="rounded=1;whiteSpace=wrap;html=1;" vertex="1" parent="moLdlOD4LK-5ZweyB185-30">
          <mxGeometry x="15" y="106" width="120" height="30" as="geometry" />
        </mxCell>
        <mxCell id="moLdlOD4LK-5ZweyB185-31" value="" style="group" vertex="1" connectable="0" parent="1">
          <mxGeometry x="460" y="74" width="150" height="166" as="geometry" />
        </mxCell>
        <mxCell id="moLdlOD4LK-5ZweyB185-2" value="" style="sketch=0;aspect=fixed;pointerEvents=1;shadow=0;dashed=0;html=1;strokeColor=none;labelPosition=center;verticalLabelPosition=bottom;verticalAlign=top;align=center;fillColor=#00188D;shape=mxgraph.azure.laptop" vertex="1" parent="moLdlOD4LK-5ZweyB185-31">
          <mxGeometry width="150" height="90" as="geometry" />
        </mxCell>
        <mxCell id="moLdlOD4LK-5ZweyB185-8" value="&lt;span style=&quot;font-size: 18px;&quot;&gt;&lt;b&gt;FACTORY&lt;br&gt;TALLY&lt;br&gt;&lt;/b&gt;&lt;/span&gt;" style="rounded=1;whiteSpace=wrap;html=1;" vertex="1" parent="moLdlOD4LK-5ZweyB185-31">
          <mxGeometry x="15" y="106" width="125" height="60" as="geometry" />
        </mxCell>
        <mxCell id="moLdlOD4LK-5ZweyB185-40" style="edgeStyle=orthogonalEdgeStyle;rounded=0;orthogonalLoop=1;jettySize=auto;html=1;entryX=0.5;entryY=0;entryDx=0;entryDy=0;" edge="1" parent="1" source="moLdlOD4LK-5ZweyB185-7" target="moLdlOD4LK-5ZweyB185-38">
          <mxGeometry relative="1" as="geometry">
            <Array as="points">
              <mxPoint x="175" y="320" />
              <mxPoint x="25" y="320" />
            </Array>
          </mxGeometry>
        </mxCell>
        <mxCell id="moLdlOD4LK-5ZweyB185-45" style="edgeStyle=orthogonalEdgeStyle;rounded=0;orthogonalLoop=1;jettySize=auto;html=1;entryX=0.25;entryY=0;entryDx=0;entryDy=0;" edge="1" parent="1" source="moLdlOD4LK-5ZweyB185-35" target="moLdlOD4LK-5ZweyB185-21">
          <mxGeometry relative="1" as="geometry" />
        </mxCell>
        <mxCell id="moLdlOD4LK-5ZweyB185-46" value="" style="group" vertex="1" connectable="0" parent="1">
          <mxGeometry x="-80" y="363" width="220" height="187" as="geometry" />
        </mxCell>
        <mxCell id="moLdlOD4LK-5ZweyB185-35" value="" style="rounded=1;whiteSpace=wrap;html=1;container=0;" vertex="1" parent="moLdlOD4LK-5ZweyB185-46">
          <mxGeometry width="220" height="187" as="geometry" />
        </mxCell>
        <mxCell id="moLdlOD4LK-5ZweyB185-36" value="&lt;h1 style=&quot;text-align: center;&quot;&gt;SALES ORDERS&lt;/h1&gt;&lt;p&gt;&lt;/p&gt;&lt;b&gt;1. After filling Dispatch Detail&lt;br&gt;Zoho CRM generates a unique ID&lt;br&gt;2. Send Mail&lt;br&gt;&lt;/b&gt;" style="text;html=1;strokeColor=none;fillColor=none;spacing=5;spacingTop=-20;whiteSpace=wrap;overflow=hidden;rounded=0;container=0;" vertex="1" parent="moLdlOD4LK-5ZweyB185-46">
          <mxGeometry x="4.290000000000006" y="60" width="215.71" height="117" as="geometry" />
        </mxCell>
        <mxCell id="moLdlOD4LK-5ZweyB185-38" value="" style="shape=image;html=1;verticalAlign=top;verticalLabelPosition=bottom;labelBackgroundColor=#ffffff;imageAspect=0;aspect=fixed;image=https://cdn1.iconfinder.com/data/icons/ios-11-glyphs/30/order-128.png;container=0;" vertex="1" parent="moLdlOD4LK-5ZweyB185-46">
          <mxGeometry x="75" width="60" height="60" as="geometry" />
        </mxCell>
        <mxCell id="moLdlOD4LK-5ZweyB185-47" value="" style="rounded=1;whiteSpace=wrap;html=1;" vertex="1" parent="1">
          <mxGeometry x="980" y="30" width="290" height="480" as="geometry" />
        </mxCell>
        <mxCell id="moLdlOD4LK-5ZweyB185-48" value="&lt;span style=&quot;font-size: 18px;&quot;&gt;&lt;b&gt;HEAD OFFICE&lt;/b&gt;&lt;/span&gt;" style="rounded=1;whiteSpace=wrap;html=1;" vertex="1" parent="1">
          <mxGeometry x="1040" y="48" width="150" height="26" as="geometry" />
        </mxCell>
        <mxCell id="moLdlOD4LK-5ZweyB185-49" value="" style="group" vertex="1" connectable="0" parent="1">
          <mxGeometry x="1040" y="100" width="160" height="156" as="geometry" />
        </mxCell>
        <mxCell id="moLdlOD4LK-5ZweyB185-3" value="" style="sketch=0;aspect=fixed;pointerEvents=1;shadow=0;dashed=0;html=1;strokeColor=none;labelPosition=center;verticalLabelPosition=bottom;verticalAlign=top;align=center;fillColor=#00188D;shape=mxgraph.azure.laptop" vertex="1" parent="moLdlOD4LK-5ZweyB185-49">
          <mxGeometry width="150" height="90" as="geometry" />
        </mxCell>
        <mxCell id="moLdlOD4LK-5ZweyB185-9" value="&lt;span style=&quot;font-size: 18px;&quot;&gt;&lt;b&gt;HEAD OFFICE&lt;br&gt;TALLY&lt;br&gt;&lt;/b&gt;&lt;/span&gt;" style="rounded=1;whiteSpace=wrap;html=1;" vertex="1" parent="moLdlOD4LK-5ZweyB185-49">
          <mxGeometry x="2.5" y="106" width="157.5" height="50" as="geometry" />
        </mxCell>
        <mxCell id="moLdlOD4LK-5ZweyB185-54" style="edgeStyle=orthogonalEdgeStyle;rounded=0;orthogonalLoop=1;jettySize=auto;html=1;entryX=0;entryY=0.5;entryDx=0;entryDy=0;" edge="1" parent="1" source="moLdlOD4LK-5ZweyB185-26" target="moLdlOD4LK-5ZweyB185-9">
          <mxGeometry relative="1" as="geometry" />
        </mxCell>
        <mxCell id="moLdlOD4LK-5ZweyB185-59" value="" style="group" vertex="1" connectable="0" parent="1">
          <mxGeometry x="1030" y="380" width="190" height="118" as="geometry" />
        </mxCell>
        <mxCell id="moLdlOD4LK-5ZweyB185-50" value="" style="sketch=0;outlineConnect=0;fontColor=#232F3E;gradientColor=none;fillColor=#7AA116;strokeColor=none;dashed=0;verticalLabelPosition=bottom;verticalAlign=top;align=center;html=1;fontSize=12;fontStyle=0;aspect=fixed;pointerEvents=1;shape=mxgraph.aws4.iot_thing_industrial_pc;" vertex="1" parent="moLdlOD4LK-5ZweyB185-59">
          <mxGeometry x="51" width="78" height="78" as="geometry" />
        </mxCell>
        <mxCell id="moLdlOD4LK-5ZweyB185-51" value="&lt;span style=&quot;font-size: 18px;&quot;&gt;&lt;b&gt;TALLY CONNECTOR&lt;/b&gt;&lt;/span&gt;" style="rounded=1;whiteSpace=wrap;html=1;" vertex="1" parent="moLdlOD4LK-5ZweyB185-59">
          <mxGeometry y="88" width="190" height="30" as="geometry" />
        </mxCell>
        <mxCell id="moLdlOD4LK-5ZweyB185-63" style="edgeStyle=orthogonalEdgeStyle;rounded=0;orthogonalLoop=1;jettySize=auto;html=1;" edge="1" parent="1" source="moLdlOD4LK-5ZweyB185-9" target="moLdlOD4LK-5ZweyB185-50">
          <mxGeometry relative="1" as="geometry" />
        </mxCell>
        <mxCell id="moLdlOD4LK-5ZweyB185-65" value="" style="whiteSpace=wrap;html=1;rounded=1;" vertex="1" parent="1">
          <mxGeometry x="1340" y="30" width="320" height="850" as="geometry" />
        </mxCell>
        <mxCell id="moLdlOD4LK-5ZweyB185-66" value="" style="edgeStyle=orthogonalEdgeStyle;rounded=0;orthogonalLoop=1;jettySize=auto;html=1;" edge="1" parent="1" source="moLdlOD4LK-5ZweyB185-51" target="moLdlOD4LK-5ZweyB185-65">
          <mxGeometry relative="1" as="geometry" />
        </mxCell>
        <mxCell id="moLdlOD4LK-5ZweyB185-68" value="&lt;span style=&quot;font-size: 18px;&quot;&gt;&lt;b&gt;WORK OF TALLY CONNECTOR&lt;/b&gt;&lt;/span&gt;" style="rounded=1;whiteSpace=wrap;html=1;" vertex="1" parent="1">
          <mxGeometry x="1362.5" y="48" width="275" height="32" as="geometry" />
        </mxCell>
        <mxCell id="moLdlOD4LK-5ZweyB185-70" value="&lt;b&gt;&lt;font style=&quot;font-size: 18px;&quot;&gt;Sync Receipt Voucher to Connector App&lt;/font&gt;&lt;/b&gt;" style="rounded=1;whiteSpace=wrap;html=1;" vertex="1" parent="1">
          <mxGeometry x="1410" y="100" width="200" height="70" as="geometry" />
        </mxCell>
        <mxCell id="moLdlOD4LK-5ZweyB185-71" value="&lt;b&gt;Retrieve Receipt Data and Bill Allocations&lt;/b&gt;" style="rounded=1;whiteSpace=wrap;html=1;" vertex="1" parent="1">
          <mxGeometry x="1415" y="190" width="170" height="40" as="geometry" />
        </mxCell>
        <mxCell id="moLdlOD4LK-5ZweyB185-72" value="" style="strokeWidth=2;html=1;shape=mxgraph.flowchart.annotation_1;align=left;pointerEvents=1;" vertex="1" parent="1">
          <mxGeometry x="1390" y="140" width="20" height="160" as="geometry" />
        </mxCell>
        <mxCell id="moLdlOD4LK-5ZweyB185-75" value="&lt;b&gt;Find Sales Invoice&amp;nbsp;&lt;/b&gt;&lt;b style=&quot;border-color: var(--border-color);&quot;&gt;Unique ID&lt;/b&gt;&lt;b&gt;&lt;br&gt;&amp;nbsp;Using Bill Allocation Number&lt;/b&gt;" style="rounded=1;whiteSpace=wrap;html=1;" vertex="1" parent="1">
          <mxGeometry x="1415" y="250" width="180" height="80" as="geometry" />
        </mxCell>
        <mxCell id="moLdlOD4LK-5ZweyB185-79" style="edgeStyle=orthogonalEdgeStyle;rounded=0;orthogonalLoop=1;jettySize=auto;html=1;entryX=-0.15;entryY=0.444;entryDx=0;entryDy=0;entryPerimeter=0;" edge="1" parent="1" source="moLdlOD4LK-5ZweyB185-71" target="moLdlOD4LK-5ZweyB185-72">
          <mxGeometry relative="1" as="geometry" />
        </mxCell>
        <mxCell id="moLdlOD4LK-5ZweyB185-80" value="&lt;div&gt;&lt;b&gt;&lt;font style=&quot;font-size: 18px;&quot;&gt;Find Sales Order Using Unique ID (Created in Zoho CRM)&lt;/font&gt;&lt;/b&gt;&lt;/div&gt;&lt;div&gt;&lt;b style=&quot;&quot;&gt;&lt;font size=&quot;3&quot;&gt;Update Outstanding Amount Field in Sales Order&lt;/font&gt;&lt;/b&gt;&lt;/div&gt;" style="rounded=1;whiteSpace=wrap;html=1;" vertex="1" parent="1">
          <mxGeometry x="1410" y="350" width="220" height="130" as="geometry" />
        </mxCell>
        <mxCell id="moLdlOD4LK-5ZweyB185-81" value="&lt;b&gt;Update Outstanding Amount Field in Sales Order&lt;/b&gt;" style="rounded=1;whiteSpace=wrap;html=1;" vertex="1" parent="1">
          <mxGeometry x="1410" y="530" width="170" height="60" as="geometry" />
        </mxCell>
        <mxCell id="moLdlOD4LK-5ZweyB185-83" value="" style="strokeWidth=2;html=1;shape=mxgraph.flowchart.annotation_1;align=left;pointerEvents=1;" vertex="1" parent="1">
          <mxGeometry x="1390" y="395" width="20" height="165" as="geometry" />
        </mxCell>
        <mxCell id="moLdlOD4LK-5ZweyB185-90" value="&lt;b&gt;&lt;font style=&quot;font-size: 18px;&quot;&gt;Special Scenario: Fetching Sales Order from Before April 1&lt;/font&gt;&lt;/b&gt;" style="rounded=1;whiteSpace=wrap;html=1;" vertex="1" parent="1">
          <mxGeometry x="1406.5" y="610" width="200" height="70" as="geometry" />
        </mxCell>
        <mxCell id="moLdlOD4LK-5ZweyB185-91" value="" style="strokeWidth=2;html=1;shape=mxgraph.flowchart.annotation_1;align=left;pointerEvents=1;" vertex="1" parent="1">
          <mxGeometry x="1386.5" y="650" width="20" height="190" as="geometry" />
        </mxCell>
        <mxCell id="moLdlOD4LK-5ZweyB185-93" value="&lt;b&gt;If Sales Order Not Found in Zoho CRM&lt;/b&gt;" style="rounded=1;whiteSpace=wrap;html=1;" vertex="1" parent="1">
          <mxGeometry x="1411.5" y="700" width="170" height="40" as="geometry" />
        </mxCell>
        <mxCell id="moLdlOD4LK-5ZweyB185-94" value="&lt;b&gt;Go to Customer Record&lt;/b&gt;" style="rounded=1;whiteSpace=wrap;html=1;" vertex="1" parent="1">
          <mxGeometry x="1411.5" y="760" width="168.5" height="40" as="geometry" />
        </mxCell>
        <mxCell id="moLdlOD4LK-5ZweyB185-95" value="&lt;b&gt;Update Outstanding Amount Field&lt;/b&gt;" style="rounded=1;whiteSpace=wrap;html=1;" vertex="1" parent="1">
          <mxGeometry x="1406.5" y="820" width="168.5" height="40" as="geometry" />
        </mxCell>
        <mxCell id="moLdlOD4LK-5ZweyB185-96" style="edgeStyle=orthogonalEdgeStyle;rounded=0;orthogonalLoop=1;jettySize=auto;html=1;entryX=0.063;entryY=0.684;entryDx=0;entryDy=0;entryPerimeter=0;" edge="1" parent="1" source="moLdlOD4LK-5ZweyB185-94" target="moLdlOD4LK-5ZweyB185-91">
          <mxGeometry relative="1" as="geometry" />
        </mxCell>
        <mxCell id="moLdlOD4LK-5ZweyB185-97" style="edgeStyle=orthogonalEdgeStyle;rounded=0;orthogonalLoop=1;jettySize=auto;html=1;entryX=0.063;entryY=0.378;entryDx=0;entryDy=0;entryPerimeter=0;" edge="1" parent="1" source="moLdlOD4LK-5ZweyB185-93" target="moLdlOD4LK-5ZweyB185-91">
          <mxGeometry relative="1" as="geometry" />
        </mxCell>
      </root>
    </mxGraphModel>
  </diagram>
</mxfile>
